ffmpeg version 2024-03-11-git-3d1860ec8d-full_build-www.gyan.dev Copyright (c) 2000-2024 the FFmpeg developers
  built with gcc 13.2.0 (Rev5, Built by MSYS2 project)
  configuration: --enable-gpl --enable-version3 --enable-static --pkg-config=pkgconf --disable-w32threads --disable-autodetect --enable-fontconfig --enable-iconv --enable-gnutls --enable-libxml2 --enable-gmp --enable-bzlib --enable-lzma --enable-libsnappy --enable-zlib --enable-librist --enable-libsrt --enable-libssh --enable-libzmq --enable-avisynth --enable-libbluray --enable-libcaca --enable-sdl2 --enable-libaribb24 --enable-libaribcaption --enable-libdav1d --enable-libdavs2 --enable-libuavs3d --enable-libzvbi --enable-librav1e --enable-libsvtav1 --enable-libwebp --enable-libx264 --enable-libx265 --enable-libxavs2 --enable-libxvid --enable-libaom --enable-libjxl --enable-libopenjpeg --enable-libvpx --enable-mediafoundation --enable-libass --enable-frei0r --enable-libfreetype --enable-libfribidi --enable-libharfbuzz --enable-liblensfun --enable-libvidstab --enable-libvmaf --enable-libzimg --enable-amf --enable-cuda-llvm --enable-cuvid --enable-ffnvcodec --enable-nvdec --enable-nvenc --enable-dxva2 --enable-d3d11va --enable-libvpl --enable-libshaderc --enable-vulkan --enable-libplacebo --enable-opencl --enable-libcdio --enable-libgme --enable-libmodplug --enable-libopenmpt --enable-libopencore-amrwb --enable-libmp3lame --enable-libshine --enable-libtheora --enable-libtwolame --enable-libvo-amrwbenc --enable-libcodec2 --enable-libilbc --enable-libgsm --enable-libopencore-amrnb --enable-libopus --enable-libspeex --enable-libvorbis --enable-ladspa --enable-libbs2b --enable-libflite --enable-libmysofa --enable-librubberband --enable-libsoxr --enable-chromaprint
  libavutil      59.  1.100 / 59.  1.100
  libavcodec     61.  1.100 / 61.  1.100
  libavformat    61.  0.100 / 61.  0.100
  libavdevice    61.  0.100 / 61.  0.100
  libavfilter    10.  0.100 / 10.  0.100
  libswscale      8.  0.100 /  8.  0.100
  libswresample   5.  0.100 /  5.  0.100
  libpostproc    58.  0.100 / 58.  0.100
Input #0, mp3, from 'C:\Users\a1863615\INT\Interviews\patient_y\Audio_Participant_12345.mp3':
  Metadata:
    major_brand     : mp42
    minor_version   : 0
    compatible_brands: mp41isom
    comment         : Create videos with https://clipchamp.com/en/video-editor - free online video editor, video compressor, video converter.
    encoder         : Lavf58.76.100
  Duration: 00:01:22.16, start: 0.025057, bitrate: 128 kb/s
  Stream #0:0: Audio: mp3 (mp3float), 44100 Hz, stereo, fltp, 128 kb/s
      Metadata:
        encoder         : Lavc58.13
Stream mapping:
  Stream #0:0 -> #0:0 (mp3 (mp3float) -> mp3 (libmp3lame))
Press [q] to stop, [?] for help
Output #0, mp3, to 'C:\Users\a1863615\INT\Interviews\patient_y\12345_cleaned.mp3':
  Metadata:
    major_brand     : mp42
    minor_version   : 0
    compatible_brands: mp41isom
    comment         : Create videos with https://clipchamp.com/en/video-editor - free online video editor, video compressor, video converter.
    TSSE            : Lavf61.0.100
  Stream #0:0: Audio: mp3, 44100 Hz, stereo, fltp
      Metadata:
        encoder         : Lavc61.1.100 libmp3lame
size=     512KiB time=00:00:44.61 bitrate=  94.0kbits/s speed=88.3x    [out#0/mp3 @ 0000021e8f382580] video:0KiB audio:1284KiB subtitle:0KiB other streams:0KiB global headers:0KiB muxing overhead: 0.036821%
size=    1284KiB time=00:01:22.10 bitrate= 128.1kbits/s speed=93.1x    
